<svg id="Capa_1" data-name="Capa 1" xmlns="http://www.w3.org/2000/svg" viewBox="0 0 72 72"><defs><style>.cls-1,.cls-2{fill:#fff;}.cls-1{fill-rule:evenodd;}</style></defs><title>ECO</title><path class="cls-1" d="M36.66,8.11h0c-2.9,0-5.75,3-7.86,7.14a31.81,31.81,0,0,0-3.45,13.69h0c0,4.58,1.79,7.59,4.1,9.46A11.83,11.83,0,0,0,36.66,41h0a11.85,11.85,0,0,0,7.21-2.59c2.3-1.87,4.09-4.88,4.09-9.46h0a31.94,31.94,0,0,0-3.44-13.69c-2.11-4.14-5-7.14-7.86-7.14Zm0,1h0c2.46,0,5,2.77,7,6.59A30.85,30.85,0,0,1,47,28.94h0c0,4.22-1.62,7-3.72,8.68A10.83,10.83,0,0,1,36.66,40h0a10.85,10.85,0,0,1-6.58-2.35c-2.09-1.7-3.71-4.46-3.72-8.68h0A31,31,0,0,1,29.7,15.71C31.65,11.89,34.19,9.12,36.66,9.12Z"/><path class="cls-1" d="M36.3,60.48a1.22,1.22,0,0,0-.43.37.83.83,0,0,0-.14.49.87.87,0,0,0,.61.82,5.43,5.43,0,0,0,2,.26,4.61,4.61,0,0,0,1.76-.24.78.78,0,0,0,.51-.75.58.58,0,0,0-.29-.54,2,2,0,0,0-.93-.23l-3.05-.18Zm1.79-7.26a1.42,1.42,0,0,0-1,.4,1.49,1.49,0,0,0,2.09,2.11,1.46,1.46,0,0,0,.38-1.06,1.39,1.39,0,0,0-.4-1.05,1.36,1.36,0,0,0-1-.4Zm-2.55,3.57a2.68,2.68,0,0,1-1-.89,2.18,2.18,0,0,1-.34-1.2,2.49,2.49,0,0,1,1.06-2.08A4.53,4.53,0,0,1,38,51.83a4.7,4.7,0,0,1,.92.08,4.59,4.59,0,0,1,.88.24,2.11,2.11,0,0,1,.62-1.4A2.16,2.16,0,0,1,42,50.29l.63,0,.23,0-.06,1.81h-.09l-.52,0a1.65,1.65,0,0,0-.79.15.68.68,0,0,0-.34.47,3.28,3.28,0,0,1,.68,1,2.51,2.51,0,0,1,.23,1,2.4,2.4,0,0,1-1,2,4.48,4.48,0,0,1-2.72.74c-.27,0-.52,0-.74,0a5,5,0,0,1-.62-.11,1.21,1.21,0,0,0-.41.27.47.47,0,0,0-.14.34.54.54,0,0,0,.21.47,1.13,1.13,0,0,0,.66.18l2.67.12a3.84,3.84,0,0,1,2.23.72,2.09,2.09,0,0,1,.82,1.72,2.25,2.25,0,0,1-1.19,2,6.58,6.58,0,0,1-3.37.71,8.83,8.83,0,0,1-3.64-.56,1.81,1.81,0,0,1-1.18-1.72,1.59,1.59,0,0,1,.35-1,2,2,0,0,1,1-.65,1.76,1.76,0,0,1-.63-.57A1.35,1.35,0,0,1,34,58.6a1.64,1.64,0,0,1,.38-1.09,2.61,2.61,0,0,1,1.17-.72Zm8.24,4V49H46.3v4.16a3,3,0,0,1,1.05-1,2.9,2.9,0,0,1,1.4-.34,2.64,2.64,0,0,1,2.14.82,3.73,3.73,0,0,1,.7,2.5v5.67H49.06v-5.5a2.05,2.05,0,0,0-.3-1.22,1,1,0,0,0-.9-.41,1.37,1.37,0,0,0-1.13.54,2.2,2.2,0,0,0-.43,1.43v5.16Zm16.94-7.44a3.51,3.51,0,0,1,1.17-1.14,3.11,3.11,0,0,1,1.54-.37,2.56,2.56,0,0,1,2,.74,3.16,3.16,0,0,1,.68,2.18v6H63.58V55.14a1.7,1.7,0,0,0-.28-1,1,1,0,0,0-.82-.38,1.3,1.3,0,0,0-1.08.53,2.18,2.18,0,0,0-.42,1.4v5.12h-2.5V55.18a1.79,1.79,0,0,0-.28-1.1.93.93,0,0,0-.81-.37,1.31,1.31,0,0,0-1,.49,2,2,0,0,0-.4,1.28v5.28h-2.5V52h2.32v1.33a3.25,3.25,0,0,1,1.08-1.15,2.72,2.72,0,0,1,1.42-.38,2.79,2.79,0,0,1,1.51.37A2.4,2.4,0,0,1,60.72,53.32Z"/><path class="cls-2" d="M11.82,52.19a3.39,3.39,0,0,1,1.33,1.13,4,4,0,0,1,.58,1.55,9.9,9.9,0,0,1,.13,1.93H7.49a3.8,3.8,0,0,0,.63,2.14,2.08,2.08,0,0,0,1.81.81A2.31,2.31,0,0,0,11.75,59a2.49,2.49,0,0,0,.54-1h1.45A3.15,3.15,0,0,1,13.36,59a4,4,0,0,1-.72,1,3.4,3.4,0,0,1-1.65.89A5.35,5.35,0,0,1,9.8,61,3.68,3.68,0,0,1,7,59.83,4.68,4.68,0,0,1,5.91,56.5a5.05,5.05,0,0,1,1.14-3.43,3.74,3.74,0,0,1,3-1.32A4,4,0,0,1,11.82,52.19Zm.53,3.44a3.94,3.94,0,0,0-.41-1.53,2.12,2.12,0,0,0-2-1.06,2.18,2.18,0,0,0-1.68.73,2.72,2.72,0,0,0-.72,1.86Z"/><path class="cls-2" d="M21.51,52.42a3.45,3.45,0,0,1,1.12,2.47H21.2a2.67,2.67,0,0,0-.6-1.34A1.88,1.88,0,0,0,19.1,53a2.08,2.08,0,0,0-2,1.37,5.52,5.52,0,0,0-.39,2.2,4,4,0,0,0,.56,2.21,1.9,1.9,0,0,0,1.75.9,1.89,1.89,0,0,0,1.45-.56,3.15,3.15,0,0,0,.74-1.52h1.43a3.81,3.81,0,0,1-1.23,2.54,3.8,3.8,0,0,1-2.51.81,3.37,3.37,0,0,1-2.74-1.25,4.84,4.84,0,0,1-1-3.14A5.27,5.27,0,0,1,16.25,53,3.61,3.61,0,0,1,19.1,51.7,3.82,3.82,0,0,1,21.51,52.42Z"/><path class="cls-2" d="M30.44,52.82a4.42,4.42,0,0,1,1.17,3.32,5.74,5.74,0,0,1-1,3.5A3.69,3.69,0,0,1,27.41,61a3.58,3.58,0,0,1-2.85-1.22,4.83,4.83,0,0,1-1.06-3.28A5.22,5.22,0,0,1,24.62,53a3.7,3.7,0,0,1,3-1.3A3.91,3.91,0,0,1,30.44,52.82Zm-.91,5.82a5.52,5.52,0,0,0,.54-2.46,4.38,4.38,0,0,0-.39-2A2.18,2.18,0,0,0,27.56,53a2.08,2.08,0,0,0-1.94,1,4.82,4.82,0,0,0-.6,2.48,4.22,4.22,0,0,0,.6,2.33,2.14,2.14,0,0,0,1.93.93A2,2,0,0,0,29.53,58.64Z"/></svg>